<svg xmlns="http://www.w3.org/2000/svg" viewBox="0 0 1280 720" width="1280" height="720">
    <defs>
      <radialGradient id="bg10" cx="50%" cy="50%" r="70%">
        <stop offset="0%" stop-color="#161b38" />
        <stop offset="60%" stop-color="#0f1224" />
        <stop offset="100%" stop-color="#090a14" />
      </radialGradient>
      <filter id="glow10" x="-50%" y="-50%" width="200%" height="200%">
        <feGaussianBlur in="SourceGraphic" stdDeviation="12" result="blur" />
        <feMerge><feMergeNode in="blur" /><feMergeNode in="SourceGraphic" /></feMerge>
      </filter>
    </defs>
    <rect width="1280" height="720" fill="url(#bg10)" />
    <!-- Pedestal Base -->
    <g transform="translate(640, 560)">
      <ellipse cx="0" cy="0" rx="260" ry="80" fill="#13172e" stroke="#2e355c" stroke-width="3" />
      <ellipse cx="0" cy="-8" rx="200" ry="60" fill="#1c2142" stroke="#38bdf8" stroke-width="1.5" opacity="0.6" />
    </g>

    <!-- Stacked Architectural Modernist Blocks -->
    <!-- Block 1 (Base) -->
    <g transform="translate(640, 480)">
      <polygon points="0,-40 180,-10 0,20 -180,-10" fill="#3b82f6" stroke="#60a5fa" stroke-width="2" />
      <polygon points="-180,-10 0,20 0,60 -180,30" fill="#1d4ed8" />
      <polygon points="0,20 180,-10 180,30 0,60" fill="#1e3a8a" />
    </g>
    <!-- Block 2 -->
    <g transform="translate(640, 420)">
      <polygon points="0,-40 160,-10 0,20 -160,-10" fill="#6366f1" stroke="#818cf8" stroke-width="2" />
      <polygon points="-160,-10 0,20 0,60 -160,30" fill="#4338ca" />
      <polygon points="0,20 160,-10 160,30 0,60" fill="#312e81" />
    </g>
    <!-- Block 3 -->
    <g transform="translate(640, 360)">
      <polygon points="0,-40 140,-10 0,20 -140,-10" fill="#a855f7" stroke="#c084fc" stroke-width="2" />
      <polygon points="-140,-10 0,20 0,60 -140,30" fill="#7e22ce" />
      <polygon points="0,20 140,-10 140,30 0,60" fill="#581c87" />
    </g>
    <!-- Block 4 -->
    <g transform="translate(640, 300)">
      <polygon points="0,-40 120,-10 0,20 -120,-10" fill="#f59e0b" stroke="#fcd34d" stroke-width="2" />
      <polygon points="-120,-10 0,20 0,60 -120,30" fill="#d97706" />
      <polygon points="0,20 120,-10 120,30 0,60" fill="#92400e" />
    </g>

    <!-- Descending Top Block (Laser Alignment Phase) -->
    <g transform="translate(640, 190)" filter="url(#glow10)">
      <polygon points="0,-35 100,-8 0,18 -100,-8" fill="#38bdf8" stroke="#bae6fd" stroke-width="2" opacity="0.95" />
      <polygon points="-100,-8 0,18 0,55 -100,28" fill="#0284c7" />
      <polygon points="0,18 100,-8 100,28 0,55" fill="#0369a1" />
    </g>

    <!-- Cyan Laser Alignment Guides -->
    <line x1="540" y1="180" x2="540" y2="300" stroke="#38bdf8" stroke-width="2" stroke-dasharray="6 6" opacity="0.8" filter="url(#glow10)" />
    <line x1="740" y1="180" x2="740" y2="300" stroke="#38bdf8" stroke-width="2" stroke-dasharray="6 6" opacity="0.8" filter="url(#glow10)" />
    
    <!-- Alignment Sparkles -->
    <circle cx="540" cy="240" r="4" fill="#38bdf8" filter="url(#glow10)" />
    <circle cx="740" cy="240" r="4" fill="#38bdf8" filter="url(#glow10)" />
    <circle cx="640" cy="140" r="5" fill="#fbbf24" filter="url(#glow10)" />
  </svg>