<svg xmlns="http://www.w3.org/2000/svg" viewBox="0 0 1280 720" width="1280" height="720">
    <defs>
      <radialGradient id="bg13" cx="50%" cy="50%" r="70%">
        <stop offset="0%" stop-color="#241947" />
        <stop offset="60%" stop-color="#140e2b" />
        <stop offset="100%" stop-color="#0a0717" />
      </radialGradient>
      <linearGradient id="goldLuxe" x1="0%" y1="0%" x2="100%" y2="100%">
        <stop offset="0%" stop-color="#fef08a" />
        <stop offset="35%" stop-color="#f59e0b" />
        <stop offset="70%" stop-color="#d97706" />
        <stop offset="100%" stop-color="#78350f" />
      </linearGradient>
      <filter id="glow13" x="-50%" y="-50%" width="200%" height="200%">
        <feGaussianBlur in="SourceGraphic" stdDeviation="16" result="blur" />
        <feMerge><feMergeNode in="blur" /><feMergeNode in="SourceGraphic" /></feMerge>
      </filter>
    </defs>
    <rect width="1280" height="720" fill="url(#bg13)" />
    <!-- Radiating Grand Champagne Beams -->
    <g opacity="0.18" fill="#fbbf24">
      <polygon points="640,360 480,0 800,0" />
      <polygon points="640,360 1280,180 1280,540" />
      <polygon points="640,360 800,720 480,720" />
      <polygon points="640,360 0,540 0,180" />
    </g>

    <!-- Grand Radial Celebration Dial -->
    <g transform="translate(640, 360)">
      <!-- Outer Dial Aura -->
      <circle cx="0" cy="0" r="240" fill="none" stroke="#f59e0b" stroke-width="4" opacity="0.5" filter="url(#glow13)" />
      <!-- Outer Beveled Gold Ring -->
      <circle cx="0" cy="0" r="225" fill="#1b1438" stroke="url(#goldLuxe)" stroke-width="16" />
      
      <!-- Laurel / Segment Pattern -->
      <circle cx="0" cy="0" r="205" fill="none" stroke="#fbbf24" stroke-width="2" stroke-dasharray="8 12" />

      <!-- Inner Slices in Royal Purple, Crimson & Gold -->
      <g>
        <path d="M 0,0 L 0,-200 A 200,200 0 0,1 141,-141 Z" fill="#7c3aed" stroke="#fef08a" stroke-width="2" />
        <path d="M 0,0 L 141,-141 A 200,200 0 0,1 200,0 Z" fill="#d97706" stroke="#fef08a" stroke-width="2" />
        <path d="M 0,0 L 200,0 A 200,200 0 0,1 141,141 Z" fill="#dc2626" stroke="#fef08a" stroke-width="2" />
        <path d="M 0,0 L 141,141 A 200,200 0 0,1 0,200 Z" fill="#4f46e5" stroke="#fef08a" stroke-width="2" />
        <path d="M 0,0 L 0,200 A 200,200 0 0,1 -141,141 Z" fill="#9333ea" stroke="#fef08a" stroke-width="2" />
        <path d="M 0,0 L -141,141 A 200,200 0 0,1 -200,0 Z" fill="#b45309" stroke="#fef08a" stroke-width="2" />
        <path d="M 0,0 L -200,0 A 200,200 0 0,1 -141,-141 Z" fill="#b91c1c" stroke="#fef08a" stroke-width="2" />
        <path d="M 0,0 L -141,-141 A 200,200 0 0,1 0,-200 Z" fill="#4338ca" stroke="#fef08a" stroke-width="2" />
      </g>

      <!-- Center Medallion Emblem -->
      <circle cx="0" cy="0" r="65" fill="url(#goldLuxe)" stroke="#ffffff" stroke-width="3" filter="url(#glow13)" />
      <circle cx="0" cy="0" r="50" fill="#241947" stroke="#f59e0b" stroke-width="2" />
      <!-- 8-Pointed Star Medallion -->
      <polygon points="0,-28 8,-10 26,-10 12,2 17,20 0,10 -17,20 -12,2 -26,-10 -8,-10" fill="url(#goldLuxe)" />
    </g>

    <!-- Floating Medallions & Celebratory Confetti -->
    <circle cx="310" cy="200" r="22" fill="url(#goldLuxe)" filter="url(#glow13)" />
    <circle cx="970" cy="210" r="26" fill="url(#goldLuxe)" filter="url(#glow13)" />
    <circle cx="360" cy="510" r="18" fill="url(#goldLuxe)" />
    <circle cx="940" cy="520" r="24" fill="url(#goldLuxe)" />
    <!-- Confetti Ribbons -->
    <path d="M 440,160 Q 460,200 480,180" fill="none" stroke="#fbbf24" stroke-width="3" />
    <path d="M 820,150 Q 840,190 860,170" fill="none" stroke="#f43f5e" stroke-width="3" />
    <path d="M 400,380 Q 420,410 440,390" fill="none" stroke="#38bdf8" stroke-width="3" />
    <path d="M 880,390 Q 900,420 920,400" fill="none" stroke="#a855f7" stroke-width="3" />
  </svg>